<?xml version="1.0" encoding="UTF-8" standalone="no" ?>
<!DOCTYPE svg PUBLIC "-//W3C//DTD SVG 1.1//EN" "http://www.w3.org/Graphics/SVG/1.1/DTD/svg11.dtd">
<svg xmlns="http://www.w3.org/2000/svg" xmlns:xlink="http://www.w3.org/1999/xlink" version="1.1" width="1080" height="1080" viewBox="0 0 1080 1080" xml:space="preserve">
<desc>Created with Fabric.js 5.2.4</desc>
<defs>
</defs>
<g transform="matrix(1 0 0 1 540 540)" id="72e07e17-7e3a-4703-a84f-c0db917f265e"  >
<rect style="stroke: none; stroke-width: 1; stroke-dasharray: none; stroke-linecap: butt; stroke-dashoffset: 0; stroke-linejoin: miter; stroke-miterlimit: 4; fill: rgb(255,255,255); fill-rule: nonzero; opacity: 1; visibility: hidden;" vector-effect="non-scaling-stroke"  x="-540" y="-540" rx="0" ry="0" width="1080" height="1080" />
</g>
<g transform="matrix(1 0 0 1 540 540)" id="ba1ecc68-064c-4278-9c11-3502c4b0667e"  >
</g>
<g transform="matrix(1 0 0 1 50 50)"  >
<rect style="stroke: none; stroke-width: 1; stroke-dasharray: none; stroke-linecap: butt; stroke-dashoffset: 0; stroke-linejoin: miter; stroke-miterlimit: 4; fill: rgb(255,255,255); fill-opacity: 0; fill-rule: nonzero; opacity: 1;" vector-effect="non-scaling-stroke"  x="-50" y="-50" rx="0" ry="0" width="100" height="100" />
</g>
<g transform="matrix(1 0 0 1 540 540)"  >
<rect style="stroke: none; stroke-width: 1; stroke-dasharray: none; stroke-linecap: butt; stroke-dashoffset: 0; stroke-linejoin: miter; stroke-miterlimit: 4; fill: rgb(255,255,255); fill-rule: nonzero; opacity: 1; visibility: hidden;" vector-effect="non-scaling-stroke"  x="-540" y="-540" rx="0" ry="0" width="1080" height="1080" />
</g>
<g transform="matrix(1 0 0 1 540 540)"  >
<rect style="stroke: none; stroke-width: 1; stroke-dasharray: none; stroke-linecap: butt; stroke-dashoffset: 0; stroke-linejoin: miter; stroke-miterlimit: 4; fill: rgb(255,255,255); fill-rule: nonzero; opacity: 1;" vector-effect="non-scaling-stroke"  x="-169" y="-65" rx="20" ry="20" width="338" height="130" />
</g>
<g transform="matrix(1 0 0 1 568.14 516.47)"  >
<path style="stroke: none; stroke-width: 1; stroke-dasharray: none; stroke-linecap: butt; stroke-dashoffset: 0; stroke-linejoin: miter; stroke-miterlimit: 4; fill: rgb(120,120,120); fill-rule: nonzero; opacity: 1;" vector-effect="non-scaling-stroke"  transform=" translate(-197.16, -41.47)" d="M 130.328 46 L 128.336 42.58 L 127.016 42.58 L 127.016 46 L 125.924 46 L 125.924 37.636 L 128.624 37.636 C 129.256 37.636 129.788 37.744 130.22 37.96 C 130.66 38.176 130.988 38.468 131.204 38.836 C 131.42 39.204 131.528 39.624 131.528 40.096 C 131.528 40.672 131.36 41.18 131.024 41.62 C 130.696 42.06 130.2 42.352 129.536 42.496 L 131.636 46 L 130.328 46 Z M 127.016 41.704 L 128.624 41.704 C 129.216 41.704 129.66 41.56 129.956 41.272 C 130.252 40.976 130.4 40.584 130.4 40.096 C 130.4 39.6 130.252 39.216 129.956 38.944 C 129.668 38.672 129.224 38.536 128.624 38.536 L 127.016 38.536 L 127.016 41.704 Z M 139.225 42.46 C 139.225 42.668 139.213 42.888 139.189 43.12 L 133.933 43.12 C 133.973 43.768 134.193 44.276 134.593 44.644 C 135.001 45.004 135.493 45.184 136.069 45.184 C 136.541 45.184 136.933 45.076 137.245 44.86 C 137.565 44.636 137.789 44.34 137.917 43.972 L 139.093 43.972 C 138.917 44.604 138.565 45.12 138.037 45.52 C 137.509 45.912 136.853 46.108 136.069 46.108 C 135.445 46.108 134.885 45.968 134.389 45.688 C 133.901 45.408 133.517 45.012 133.237 44.5 C 132.957 43.98 132.817 43.38 132.817 42.7 C 132.817 42.02 132.953 41.424 133.225 40.912 C 133.497 40.4 133.877 40.008 134.365 39.736 C 134.861 39.456 135.429 39.316 136.069 39.316 C 136.693 39.316 137.245 39.452 137.725 39.724 C 138.205 39.996 138.573 40.372 138.829 40.852 C 139.093 41.324 139.225 41.86 139.225 42.46 Z M 138.097 42.232 C 138.097 41.816 138.005 41.46 137.821 41.164 C 137.637 40.86 137.385 40.632 137.065 40.48 C 136.753 40.32 136.405 40.24 136.021 40.24 C 135.469 40.24 134.997 40.416 134.605 40.768 C 134.221 41.12 134.001 41.608 133.945 42.232 L 138.097 42.232 Z M 142.994 46.108 C 142.49 46.108 142.038 46.024 141.638 45.856 C 141.238 45.68 140.922 45.44 140.69 45.136 C 140.458 44.824 140.33 44.468 140.306 44.068 L 141.434 44.068 C 141.466 44.396 141.618 44.664 141.89 44.872 C 142.17 45.08 142.534 45.184 142.982 45.184 C 143.398 45.184 143.726 45.092 143.966 44.908 C 144.206 44.724 144.326 44.492 144.326 44.212 C 144.326 43.924 144.198 43.712 143.942 43.576 C 143.686 43.432 143.29 43.292 142.754 43.156 C 142.266 43.028 141.866 42.9 141.554 42.772 C 141.25 42.636 140.986 42.44 140.762 42.184 C 140.546 41.92 140.438 41.576 140.438 41.152 C 140.438 40.816 140.538 40.508 140.738 40.228 C 140.938 39.948 141.222 39.728 141.59 39.568 C 141.958 39.4 142.378 39.316 142.85 39.316 C 143.578 39.316 144.166 39.5 144.614 39.868 C 145.062 40.236 145.302 40.74 145.334 41.38 L 144.242 41.38 C 144.218 41.036 144.078 40.76 143.822 40.552 C 143.574 40.344 143.238 40.24 142.814 40.24 C 142.422 40.24 142.11 40.324 141.878 40.492 C 141.646 40.66 141.53 40.88 141.53 41.152 C 141.53 41.368 141.598 41.548 141.734 41.692 C 141.878 41.828 142.054 41.94 142.262 42.028 C 142.478 42.108 142.774 42.2 143.15 42.304 C 143.622 42.432 144.006 42.56 144.302 42.688 C 144.598 42.808 144.85 42.992 145.058 43.24 C 145.274 43.488 145.386 43.812 145.394 44.212 C 145.394 44.572 145.294 44.896 145.094 45.184 C 144.894 45.472 144.61 45.7 144.242 45.868 C 143.882 46.028 143.466 46.108 142.994 46.108 Z M 148.268 40.324 L 148.268 44.2 C 148.268 44.52 148.336 44.748 148.472 44.884 C 148.608 45.012 148.844 45.076 149.18 45.076 L 149.984 45.076 L 149.984 46 L 149 46 C 148.392 46 147.936 45.86 147.632 45.58 C 147.328 45.3 147.176 44.84 147.176 44.2 L 147.176 40.324 L 146.324 40.324 L 146.324 39.424 L 147.176 39.424 L 147.176 37.768 L 148.268 37.768 L 148.268 39.424 L 149.984 39.424 L 149.984 40.324 L 148.268 40.324 Z M 150.899 42.688 C 150.899 42.016 151.035 41.428 151.307 40.924 C 151.579 40.412 151.951 40.016 152.423 39.736 C 152.903 39.456 153.435 39.316 154.019 39.316 C 154.595 39.316 155.095 39.44 155.519 39.688 C 155.943 39.936 156.259 40.248 156.467 40.624 L 156.467 39.424 L 157.571 39.424 L 157.571 46 L 156.467 46 L 156.467 44.776 C 156.251 45.16 155.927 45.48 155.495 45.736 C 155.071 45.984 154.575 46.108 154.007 46.108 C 153.423 46.108 152.895 45.964 152.423 45.676 C 151.951 45.388 151.579 44.984 151.307 44.464 C 151.035 43.944 150.899 43.352 150.899 42.688 Z M 156.467 42.7 C 156.467 42.204 156.367 41.772 156.167 41.404 C 155.967 41.036 155.695 40.756 155.351 40.564 C 155.015 40.364 154.643 40.264 154.235 40.264 C 153.827 40.264 153.455 40.36 153.119 40.552 C 152.783 40.744 152.515 41.024 152.315 41.392 C 152.115 41.76 152.015 42.192 152.015 42.688 C 152.015 43.192 152.115 43.632 152.315 44.008 C 152.515 44.376 152.783 44.66 153.119 44.86 C 153.455 45.052 153.827 45.148 154.235 45.148 C 154.643 45.148 155.015 45.052 155.351 44.86 C 155.695 44.66 155.967 44.376 156.167 44.008 C 156.367 43.632 156.467 43.196 156.467 42.7 Z M 165.248 39.424 L 165.248 46 L 164.156 46 L 164.156 45.028 C 163.948 45.364 163.656 45.628 163.28 45.82 C 162.912 46.004 162.504 46.096 162.056 46.096 C 161.544 46.096 161.084 45.992 160.676 45.784 C 160.268 45.568 159.944 45.248 159.704 44.824 C 159.472 44.4 159.356 43.884 159.356 43.276 L 159.356 39.424 L 160.436 39.424 L 160.436 43.132 C 160.436 43.78 160.6 44.28 160.928 44.632 C 161.256 44.976 161.704 45.148 162.272 45.148 C 162.856 45.148 163.316 44.968 163.652 44.608 C 163.988 44.248 164.156 43.724 164.156 43.036 L 164.156 39.424 L 165.248 39.424 Z M 168.184 40.492 C 168.376 40.116 168.648 39.824 169 39.616 C 169.36 39.408 169.796 39.304 170.308 39.304 L 170.308 40.432 L 170.02 40.432 C 168.796 40.432 168.184 41.096 168.184 42.424 L 168.184 46 L 167.092 46 L 167.092 39.424 L 168.184 39.424 L 168.184 40.492 Z M 171.161 42.688 C 171.161 42.016 171.297 41.428 171.569 40.924 C 171.841 40.412 172.213 40.016 172.685 39.736 C 173.165 39.456 173.697 39.316 174.281 39.316 C 174.857 39.316 175.357 39.44 175.781 39.688 C 176.205 39.936 176.521 40.248 176.729 40.624 L 176.729 39.424 L 177.833 39.424 L 177.833 46 L 176.729 46 L 176.729 44.776 C 176.513 45.16 176.189 45.48 175.757 45.736 C 175.333 45.984 174.837 46.108 174.269 46.108 C 173.685 46.108 173.157 45.964 172.685 45.676 C 172.213 45.388 171.841 44.984 171.569 44.464 C 171.297 43.944 171.161 43.352 171.161 42.688 Z M 176.729 42.7 C 176.729 42.204 176.629 41.772 176.429 41.404 C 176.229 41.036 175.957 40.756 175.613 40.564 C 175.277 40.364 174.905 40.264 174.497 40.264 C 174.089 40.264 173.717 40.36 173.381 40.552 C 173.045 40.744 172.777 41.024 172.577 41.392 C 172.377 41.76 172.277 42.192 172.277 42.688 C 172.277 43.192 172.377 43.632 172.577 44.008 C 172.777 44.376 173.045 44.66 173.381 44.86 C 173.717 45.052 174.089 45.148 174.497 45.148 C 174.905 45.148 175.277 45.052 175.613 44.86 C 175.957 44.66 176.229 44.376 176.429 44.008 C 176.629 43.632 176.729 43.196 176.729 42.7 Z M 182.882 39.304 C 183.682 39.304 184.33 39.548 184.826 40.036 C 185.322 40.516 185.57 41.212 185.57 42.124 L 185.57 46 L 184.49 46 L 184.49 42.28 C 184.49 41.624 184.326 41.124 183.998 40.78 C 183.67 40.428 183.222 40.252 182.654 40.252 C 182.078 40.252 181.618 40.432 181.274 40.792 C 180.938 41.152 180.77 41.676 180.77 42.364 L 180.77 46 L 179.678 46 L 179.678 39.424 L 180.77 39.424 L 180.77 40.36 C 180.986 40.024 181.278 39.764 181.646 39.58 C 182.022 39.396 182.434 39.304 182.882 39.304 Z M 188.686 40.324 L 188.686 44.2 C 188.686 44.52 188.754 44.748 188.89 44.884 C 189.026 45.012 189.262 45.076 189.598 45.076 L 190.402 45.076 L 190.402 46 L 189.418 46 C 188.81 46 188.354 45.86 188.05 45.58 C 187.746 45.3 187.594 44.84 187.594 44.2 L 187.594 40.324 L 186.742 40.324 L 186.742 39.424 L 187.594 39.424 L 187.594 37.768 L 188.686 37.768 L 188.686 39.424 L 190.402 39.424 L 190.402 40.324 L 188.686 40.324 Z M 197.792 46.108 C 197.176 46.108 196.616 45.968 196.112 45.688 C 195.616 45.408 195.224 45.012 194.936 44.5 C 194.656 43.98 194.516 43.38 194.516 42.7 C 194.516 42.028 194.66 41.436 194.948 40.924 C 195.244 40.404 195.644 40.008 196.148 39.736 C 196.652 39.456 197.216 39.316 197.84 39.316 C 198.464 39.316 199.028 39.456 199.532 39.736 C 200.036 40.008 200.432 40.4 200.72 40.912 C 201.016 41.424 201.164 42.02 201.164 42.7 C 201.164 43.38 201.012 43.98 200.708 44.5 C 200.412 45.012 200.008 45.408 199.496 45.688 C 198.984 45.968 198.416 46.108 197.792 46.108 Z M 197.792 45.148 C 198.184 45.148 198.552 45.056 198.896 44.872 C 199.24 44.688 199.516 44.412 199.724 44.044 C 199.94 43.676 200.048 43.228 200.048 42.7 C 200.048 42.172 199.944 41.724 199.736 41.356 C 199.528 40.988 199.256 40.716 198.92 40.54 C 198.584 40.356 198.22 40.264 197.828 40.264 C 197.428 40.264 197.06 40.356 196.724 40.54 C 196.396 40.716 196.132 40.988 195.932 41.356 C 195.732 41.724 195.632 42.172 195.632 42.7 C 195.632 43.236 195.728 43.688 195.92 44.056 C 196.12 44.424 196.384 44.7 196.712 44.884 C 197.04 45.06 197.4 45.148 197.792 45.148 Z M 205.276 40.324 L 203.896 40.324 L 203.896 46 L 202.804 46 L 202.804 40.324 L 201.952 40.324 L 201.952 39.424 L 202.804 39.424 L 202.804 38.956 C 202.804 38.22 202.992 37.684 203.368 37.348 C 203.752 37.004 204.364 36.832 205.204 36.832 L 205.204 37.744 C 204.724 37.744 204.384 37.84 204.184 38.032 C 203.992 38.216 203.896 38.524 203.896 38.956 L 203.896 39.424 L 205.276 39.424 L 205.276 40.324 Z M 211.08 40.324 L 211.08 44.2 C 211.08 44.52 211.148 44.748 211.284 44.884 C 211.42 45.012 211.656 45.076 211.992 45.076 L 212.796 45.076 L 212.796 46 L 211.812 46 C 211.204 46 210.748 45.86 210.444 45.58 C 210.14 45.3 209.988 44.84 209.988 44.2 L 209.988 40.324 L 209.136 40.324 L 209.136 39.424 L 209.988 39.424 L 209.988 37.768 L 211.08 37.768 L 211.08 39.424 L 212.796 39.424 L 212.796 40.324 L 211.08 40.324 Z M 217.383 39.304 C 217.879 39.304 218.327 39.412 218.727 39.628 C 219.127 39.836 219.439 40.152 219.663 40.576 C 219.895 41 220.011 41.516 220.011 42.124 L 220.011 46 L 218.931 46 L 218.931 42.28 C 218.931 41.624 218.767 41.124 218.439 40.78 C 218.111 40.428 217.663 40.252 217.095 40.252 C 216.519 40.252 216.059 40.432 215.715 40.792 C 215.379 41.152 215.211 41.676 215.211 42.364 L 215.211 46 L 214.119 46 L 214.119 37.12 L 215.211 37.12 L 215.211 40.36 C 215.427 40.024 215.723 39.764 216.099 39.58 C 216.483 39.396 216.911 39.304 217.383 39.304 Z M 227.795 42.46 C 227.795 42.668 227.783 42.888 227.759 43.12 L 222.503 43.12 C 222.543 43.768 222.763 44.276 223.163 44.644 C 223.571 45.004 224.063 45.184 224.639 45.184 C 225.111 45.184 225.503 45.076 225.815 44.86 C 226.135 44.636 226.359 44.34 226.487 43.972 L 227.663 43.972 C 227.487 44.604 227.135 45.12 226.607 45.52 C 226.079 45.912 225.423 46.108 224.639 46.108 C 224.015 46.108 223.455 45.968 222.959 45.688 C 222.471 45.408 222.087 45.012 221.807 44.5 C 221.527 43.98 221.387 43.38 221.387 42.7 C 221.387 42.02 221.523 41.424 221.795 40.912 C 222.067 40.4 222.447 40.008 222.935 39.736 C 223.431 39.456 223.999 39.316 224.639 39.316 C 225.263 39.316 225.815 39.452 226.295 39.724 C 226.775 39.996 227.143 40.372 227.399 40.852 C 227.663 41.324 227.795 41.86 227.795 42.46 Z M 226.667 42.232 C 226.667 41.816 226.575 41.46 226.391 41.164 C 226.207 40.86 225.955 40.632 225.635 40.48 C 225.323 40.32 224.975 40.24 224.591 40.24 C 224.039 40.24 223.567 40.416 223.175 40.768 C 222.791 41.12 222.571 41.608 222.515 42.232 L 226.667 42.232 Z M 240.92 37.696 L 240.92 46 L 239.828 46 L 239.828 39.808 L 237.068 46 L 236.3 46 L 233.528 39.796 L 233.528 46 L 232.436 46 L 232.436 37.696 L 233.612 37.696 L 236.684 44.56 L 239.756 37.696 L 240.92 37.696 Z M 245.64 46.108 C 245.024 46.108 244.464 45.968 243.96 45.688 C 243.464 45.408 243.072 45.012 242.784 44.5 C 242.504 43.98 242.364 43.38 242.364 42.7 C 242.364 42.028 242.508 41.436 242.796 40.924 C 243.092 40.404 243.492 40.008 243.996 39.736 C 244.5 39.456 245.064 39.316 245.688 39.316 C 246.312 39.316 246.876 39.456 247.38 39.736 C 247.884 40.008 248.28 40.4 248.568 40.912 C 248.864 41.424 249.012 42.02 249.012 42.7 C 249.012 43.38 248.86 43.98 248.556 44.5 C 248.26 45.012 247.856 45.408 247.344 45.688 C 246.832 45.968 246.264 46.108 245.64 46.108 Z M 245.64 45.148 C 246.032 45.148 246.4 45.056 246.744 44.872 C 247.088 44.688 247.364 44.412 247.572 44.044 C 247.788 43.676 247.896 43.228 247.896 42.7 C 247.896 42.172 247.792 41.724 247.584 41.356 C 247.376 40.988 247.104 40.716 246.768 40.54 C 246.432 40.356 246.068 40.264 245.676 40.264 C 245.276 40.264 244.908 40.356 244.572 40.54 C 244.244 40.716 243.98 40.988 243.78 41.356 C 243.58 41.724 243.48 42.172 243.48 42.7 C 243.48 43.236 243.576 43.688 243.768 44.056 C 243.968 44.424 244.232 44.7 244.56 44.884 C 244.888 45.06 245.248 45.148 245.64 45.148 Z M 253.651 39.304 C 254.451 39.304 255.099 39.548 255.595 40.036 C 256.091 40.516 256.339 41.212 256.339 42.124 L 256.339 46 L 255.259 46 L 255.259 42.28 C 255.259 41.624 255.095 41.124 254.767 40.78 C 254.439 40.428 253.991 40.252 253.423 40.252 C 252.847 40.252 252.387 40.432 252.043 40.792 C 251.707 41.152 251.539 41.676 251.539 42.364 L 251.539 46 L 250.447 46 L 250.447 39.424 L 251.539 39.424 L 251.539 40.36 C 251.755 40.024 252.047 39.764 252.415 39.58 C 252.791 39.396 253.203 39.304 253.651 39.304 Z M 259.455 40.324 L 259.455 44.2 C 259.455 44.52 259.523 44.748 259.659 44.884 C 259.795 45.012 260.031 45.076 260.367 45.076 L 261.171 45.076 L 261.171 46 L 260.187 46 C 259.579 46 259.123 45.86 258.819 45.58 C 258.515 45.3 258.363 44.84 258.363 44.2 L 258.363 40.324 L 257.511 40.324 L 257.511 39.424 L 258.363 39.424 L 258.363 37.768 L 259.455 37.768 L 259.455 39.424 L 261.171 39.424 L 261.171 40.324 L 259.455 40.324 Z M 265.758 39.304 C 266.254 39.304 266.702 39.412 267.102 39.628 C 267.502 39.836 267.814 40.152 268.038 40.576 C 268.27 41 268.386 41.516 268.386 42.124 L 268.386 46 L 267.306 46 L 267.306 42.28 C 267.306 41.624 267.142 41.124 266.814 40.78 C 266.486 40.428 266.038 40.252 265.47 40.252 C 264.894 40.252 264.434 40.432 264.09 40.792 C 263.754 41.152 263.586 41.676 263.586 42.364 L 263.586 46 L 262.494 46 L 262.494 37.12 L 263.586 37.12 L 263.586 40.36 C 263.802 40.024 264.098 39.764 264.474 39.58 C 264.858 39.396 265.286 39.304 265.758 39.304 Z" stroke-linecap="round" />
</g>
<g transform="matrix(1 0 0 1 567.95 539.4)"  >
<path style="stroke: none; stroke-width: 1; stroke-dasharray: none; stroke-linecap: butt; stroke-dashoffset: 0; stroke-linejoin: miter; stroke-miterlimit: 4; fill: rgb(54,54,54); fill-rule: nonzero; opacity: 1;" vector-effect="non-scaling-stroke"  transform=" translate(-196.95, -64.4)" d="M 134.792 56.436 L 134.792 58.47 L 131.444 58.47 L 131.444 69 L 128.924 69 L 128.924 58.47 L 125.576 58.47 L 125.576 56.436 L 134.792 56.436 Z M 142.247 58.884 C 143.003 58.884 143.675 59.052 144.263 59.388 C 144.851 59.712 145.307 60.198 145.631 60.846 C 145.967 61.482 146.135 62.25 146.135 63.15 L 146.135 69 L 143.615 69 L 143.615 63.492 C 143.615 62.7 143.417 62.094 143.021 61.674 C 142.625 61.242 142.085 61.026 141.401 61.026 C 140.705 61.026 140.153 61.242 139.745 61.674 C 139.349 62.094 139.151 62.7 139.151 63.492 L 139.151 69 L 136.631 69 L 136.631 55.68 L 139.151 55.68 L 139.151 60.27 C 139.475 59.838 139.907 59.502 140.447 59.262 C 140.987 59.01 141.587 58.884 142.247 58.884 Z M 157.801 63.798 C 157.801 64.158 157.777 64.482 157.729 64.77 L 150.439 64.77 C 150.499 65.49 150.751 66.054 151.195 66.462 C 151.639 66.87 152.185 67.074 152.833 67.074 C 153.769 67.074 154.435 66.672 154.831 65.868 L 157.549 65.868 C 157.261 66.828 156.709 67.62 155.893 68.244 C 155.077 68.856 154.075 69.162 152.887 69.162 C 151.927 69.162 151.063 68.952 150.295 68.532 C 149.539 68.1 148.945 67.494 148.513 66.714 C 148.093 65.934 147.883 65.034 147.883 64.014 C 147.883 62.982 148.093 62.076 148.513 61.296 C 148.933 60.516 149.521 59.916 150.277 59.496 C 151.033 59.076 151.903 58.866 152.887 58.866 C 153.835 58.866 154.681 59.07 155.425 59.478 C 156.181 59.886 156.763 60.468 157.171 61.224 C 157.591 61.968 157.801 62.826 157.801 63.798 Z M 155.191 63.078 C 155.179 62.43 154.945 61.914 154.489 61.53 C 154.033 61.134 153.475 60.936 152.815 60.936 C 152.191 60.936 151.663 61.128 151.231 61.512 C 150.811 61.884 150.553 62.406 150.457 63.078 L 155.191 63.078 Z M 180.724 56.436 L 177.214 69 L 174.244 69 L 171.886 60.054 L 169.42 69 L 166.468 69.018 L 163.084 56.436 L 165.784 56.436 L 167.998 66.192 L 170.554 56.436 L 173.362 56.436 L 175.774 66.138 L 178.006 56.436 L 180.724 56.436 Z M 183.647 57.84 C 183.203 57.84 182.831 57.702 182.531 57.426 C 182.243 57.138 182.099 56.784 182.099 56.364 C 182.099 55.944 182.243 55.596 182.531 55.32 C 182.831 55.032 183.203 54.888 183.647 54.888 C 184.091 54.888 184.457 55.032 184.745 55.32 C 185.045 55.596 185.195 55.944 185.195 56.364 C 185.195 56.784 185.045 57.138 184.745 57.426 C 184.457 57.702 184.091 57.84 183.647 57.84 Z M 184.889 59.028 L 184.889 69 L 182.369 69 L 182.369 59.028 L 184.889 59.028 Z M 189.899 55.68 L 189.899 69 L 187.379 69 L 187.379 55.68 L 189.899 55.68 Z M 204.772 58.884 C 205.996 58.884 206.98 59.262 207.724 60.018 C 208.48 60.762 208.858 61.806 208.858 63.15 L 208.858 69 L 206.338 69 L 206.338 63.492 C 206.338 62.712 206.14 62.118 205.744 61.71 C 205.348 61.29 204.808 61.08 204.124 61.08 C 203.44 61.08 202.894 61.29 202.486 61.71 C 202.09 62.118 201.892 62.712 201.892 63.492 L 201.892 69 L 199.372 69 L 199.372 63.492 C 199.372 62.712 199.174 62.118 198.778 61.71 C 198.382 61.29 197.842 61.08 197.158 61.08 C 196.462 61.08 195.91 61.29 195.502 61.71 C 195.106 62.118 194.908 62.712 194.908 63.492 L 194.908 69 L 192.388 69 L 192.388 59.028 L 194.908 59.028 L 194.908 60.234 C 195.232 59.814 195.646 59.484 196.15 59.244 C 196.666 59.004 197.23 58.884 197.842 58.884 C 198.622 58.884 199.318 59.052 199.93 59.388 C 200.542 59.712 201.016 60.18 201.352 60.792 C 201.676 60.216 202.144 59.754 202.756 59.406 C 203.38 59.058 204.052 58.884 204.772 58.884 Z M 212.528 57.84 C 212.084 57.84 211.712 57.702 211.412 57.426 C 211.124 57.138 210.98 56.784 210.98 56.364 C 210.98 55.944 211.124 55.596 211.412 55.32 C 211.712 55.032 212.084 54.888 212.528 54.888 C 212.972 54.888 213.338 55.032 213.626 55.32 C 213.926 55.596 214.076 55.944 214.076 56.364 C 214.076 56.784 213.926 57.138 213.626 57.426 C 213.338 57.702 212.972 57.84 212.528 57.84 Z M 213.77 59.028 L 213.77 69 L 211.25 69 L 211.25 59.028 L 213.77 59.028 Z M 221.786 58.884 C 222.974 58.884 223.934 59.262 224.666 60.018 C 225.398 60.762 225.764 61.806 225.764 63.15 L 225.764 69 L 223.244 69 L 223.244 63.492 C 223.244 62.7 223.046 62.094 222.65 61.674 C 222.254 61.242 221.714 61.026 221.03 61.026 C 220.334 61.026 219.782 61.242 219.374 61.674 C 218.978 62.094 218.78 62.7 218.78 63.492 L 218.78 69 L 216.26 69 L 216.26 59.028 L 218.78 59.028 L 218.78 60.27 C 219.116 59.838 219.542 59.502 220.058 59.262 C 220.586 59.01 221.162 58.884 221.786 58.884 Z M 232.066 58.866 C 232.81 58.866 233.464 59.016 234.028 59.316 C 234.592 59.604 235.036 59.982 235.36 60.45 L 235.36 59.028 L 237.898 59.028 L 237.898 69.072 C 237.898 69.996 237.712 70.818 237.34 71.538 C 236.968 72.27 236.41 72.846 235.666 73.266 C 234.922 73.698 234.022 73.914 232.966 73.914 C 231.55 73.914 230.386 73.584 229.474 72.924 C 228.574 72.264 228.064 71.364 227.944 70.224 L 230.446 70.224 C 230.578 70.68 230.86 71.04 231.292 71.304 C 231.736 71.58 232.27 71.718 232.894 71.718 C 233.626 71.718 234.22 71.496 234.676 71.052 C 235.132 70.62 235.36 69.96 235.36 69.072 L 235.36 67.524 C 235.036 67.992 234.586 68.382 234.01 68.694 C 233.446 69.006 232.798 69.162 232.066 69.162 C 231.226 69.162 230.458 68.946 229.762 68.514 C 229.066 68.082 228.514 67.476 228.106 66.696 C 227.71 65.904 227.512 64.998 227.512 63.978 C 227.512 62.97 227.71 62.076 228.106 61.296 C 228.514 60.516 229.06 59.916 229.744 59.496 C 230.44 59.076 231.214 58.866 232.066 58.866 Z M 235.36 64.014 C 235.36 63.402 235.24 62.88 235 62.448 C 234.76 62.004 234.436 61.668 234.028 61.44 C 233.62 61.2 233.182 61.08 232.714 61.08 C 232.246 61.08 231.814 61.194 231.418 61.422 C 231.022 61.65 230.698 61.986 230.446 62.43 C 230.206 62.862 230.086 63.378 230.086 63.978 C 230.086 64.578 230.206 65.106 230.446 65.562 C 230.698 66.006 231.022 66.348 231.418 66.588 C 231.826 66.828 232.258 66.948 232.714 66.948 C 233.182 66.948 233.62 66.834 234.028 66.606 C 234.436 66.366 234.76 66.03 235 65.598 C 235.24 65.154 235.36 64.626 235.36 64.014 Z M 243.293 61.098 L 243.293 65.922 C 243.293 66.258 243.371 66.504 243.527 66.66 C 243.695 66.804 243.971 66.876 244.355 66.876 L 245.525 66.876 L 245.525 69 L 243.941 69 C 241.817 69 240.755 67.968 240.755 65.904 L 240.755 61.098 L 239.567 61.098 L 239.567 59.028 L 240.755 59.028 L 240.755 56.562 L 243.293 56.562 L 243.293 59.028 L 245.525 59.028 L 245.525 61.098 L 243.293 61.098 Z M 251.766 69.162 C 250.806 69.162 249.942 68.952 249.174 68.532 C 248.406 68.1 247.8 67.494 247.356 66.714 C 246.924 65.934 246.708 65.034 246.708 64.014 C 246.708 62.994 246.93 62.094 247.374 61.314 C 247.83 60.534 248.448 59.934 249.228 59.514 C 250.008 59.082 250.878 58.866 251.838 58.866 C 252.798 58.866 253.668 59.082 254.448 59.514 C 255.228 59.934 255.84 60.534 256.284 61.314 C 256.74 62.094 256.968 62.994 256.968 64.014 C 256.968 65.034 256.734 65.934 256.266 66.714 C 255.81 67.494 255.186 68.1 254.394 68.532 C 253.614 68.952 252.738 69.162 251.766 69.162 Z M 251.766 66.966 C 252.222 66.966 252.648 66.858 253.044 66.642 C 253.452 66.414 253.776 66.078 254.016 65.634 C 254.256 65.19 254.376 64.65 254.376 64.014 C 254.376 63.066 254.124 62.34 253.62 61.836 C 253.128 61.32 252.522 61.062 251.802 61.062 C 251.082 61.062 250.476 61.32 249.984 61.836 C 249.504 62.34 249.264 63.066 249.264 64.014 C 249.264 64.962 249.498 65.694 249.966 66.21 C 250.446 66.714 251.046 66.966 251.766 66.966 Z M 264.342 58.884 C 265.53 58.884 266.49 59.262 267.222 60.018 C 267.954 60.762 268.32 61.806 268.32 63.15 L 268.32 69 L 265.8 69 L 265.8 63.492 C 265.8 62.7 265.602 62.094 265.206 61.674 C 264.81 61.242 264.27 61.026 263.586 61.026 C 262.89 61.026 262.338 61.242 261.93 61.674 C 261.534 62.094 261.336 62.7 261.336 63.492 L 261.336 69 L 258.816 69 L 258.816 59.028 L 261.336 59.028 L 261.336 60.27 C 261.672 59.838 262.098 59.502 262.614 59.262 C 263.142 59.01 263.718 58.884 264.342 58.884 Z" stroke-linecap="round" />
</g>
<g transform="matrix(1 0 0 1 436 540)"  >
<rect style="stroke: none; stroke-width: 1; stroke-dasharray: none; stroke-linecap: butt; stroke-dashoffset: 0; stroke-linejoin: miter; stroke-miterlimit: 4; fill: rgb(0,0,0); fill-rule: nonzero; opacity: 1;" vector-effect="non-scaling-stroke"  x="-45" y="-45" rx="10" ry="10" width="90" height="90" />
</g>
<g transform="matrix(1 0 0 1 504.51 563.5)"  >
<path style="stroke: none; stroke-width: 1; stroke-dasharray: none; stroke-linecap: butt; stroke-dashoffset: 0; stroke-linejoin: miter; stroke-miterlimit: 4; fill: rgb(242,159,5); fill-rule: nonzero; opacity: 1;" vector-effect="non-scaling-stroke"  transform=" translate(-133.5, -88.5)" d="M 138.621 96.8125 C 138.496 96.8129 138.374 96.774 138.273 96.7011 L 133.5 93.2411 L 128.727 96.7011 C 128.625 96.7751 128.503 96.8147 128.377 96.8142 C 128.251 96.8138 128.128 96.7733 128.027 96.6986 C 127.925 96.6239 127.85 96.5189 127.812 96.3987 C 127.775 96.2786 127.776 96.1495 127.816 96.0302 L 129.678 90.5169 L 124.854 87.2086 C 124.749 87.137 124.67 87.0338 124.628 86.9143 C 124.587 86.7947 124.584 86.6649 124.622 86.5438 C 124.659 86.4228 124.734 86.3168 124.836 86.2415 C 124.938 86.1661 125.061 86.1253 125.188 86.125 L 131.139 86.125 L 132.935 80.5975 C 132.974 80.4782 133.049 80.3742 133.151 80.3004 C 133.252 80.2266 133.375 80.1869 133.5 80.1869 C 133.625 80.1869 133.748 80.2266 133.849 80.3004 C 133.951 80.3742 134.026 80.4782 134.065 80.5975 L 135.861 86.1268 L 141.813 86.1268 C 141.939 86.1267 142.063 86.1673 142.165 86.2425 C 142.267 86.3177 142.342 86.4237 142.38 86.5448 C 142.417 86.6659 142.415 86.7959 142.374 86.9157 C 142.332 87.0354 142.253 87.1387 142.148 87.2104 L 137.322 90.5169 L 139.183 96.0287 C 139.213 96.1179 139.221 96.2131 139.207 96.3062 C 139.193 96.3994 139.158 96.4879 139.103 96.5645 C 139.048 96.6411 138.976 96.7035 138.892 96.7466 C 138.808 96.7897 138.715 96.8123 138.621 96.8125 Z" stroke-linecap="round" />
</g>
<g transform="matrix(1 0 0 1 526.51 563.5)"  >
<path style="stroke: none; stroke-width: 1; stroke-dasharray: none; stroke-linecap: butt; stroke-dashoffset: 0; stroke-linejoin: miter; stroke-miterlimit: 4; fill: rgb(242,159,5); fill-rule: nonzero; opacity: 1;" vector-effect="non-scaling-stroke"  transform=" translate(-155.5, -88.5)" d="M 160.621 96.8125 C 160.496 96.8129 160.374 96.774 160.273 96.7011 L 155.5 93.2411 L 150.727 96.7011 C 150.625 96.7751 150.503 96.8147 150.377 96.8142 C 150.251 96.8138 150.128 96.7733 150.027 96.6986 C 149.925 96.6239 149.85 96.5189 149.812 96.3987 C 149.775 96.2786 149.776 96.1495 149.816 96.0302 L 151.678 90.5169 L 146.854 87.2086 C 146.749 87.137 146.67 87.0338 146.628 86.9143 C 146.587 86.7947 146.584 86.6649 146.622 86.5438 C 146.659 86.4228 146.734 86.3168 146.836 86.2415 C 146.938 86.1661 147.061 86.1253 147.188 86.125 L 153.139 86.125 L 154.935 80.5975 C 154.974 80.4782 155.049 80.3742 155.151 80.3004 C 155.252 80.2266 155.375 80.1869 155.5 80.1869 C 155.625 80.1869 155.748 80.2266 155.849 80.3004 C 155.951 80.3742 156.026 80.4782 156.065 80.5975 L 157.861 86.1268 L 163.813 86.1268 C 163.939 86.1267 164.063 86.1673 164.165 86.2425 C 164.267 86.3177 164.342 86.4237 164.38 86.5448 C 164.417 86.6659 164.415 86.7959 164.374 86.9157 C 164.332 87.0354 164.253 87.1387 164.148 87.2104 L 159.322 90.5169 L 161.183 96.0287 C 161.213 96.1179 161.221 96.2131 161.207 96.3062 C 161.193 96.3994 161.158 96.4879 161.103 96.5645 C 161.048 96.6411 160.976 96.7035 160.892 96.7466 C 160.808 96.7897 160.715 96.8123 160.621 96.8125 Z" stroke-linecap="round" />
</g>
<g transform="matrix(1 0 0 1 548.51 563.5)"  >
<path style="stroke: none; stroke-width: 1; stroke-dasharray: none; stroke-linecap: butt; stroke-dashoffset: 0; stroke-linejoin: miter; stroke-miterlimit: 4; fill: rgb(242,159,5); fill-rule: nonzero; opacity: 1;" vector-effect="non-scaling-stroke"  transform=" translate(-177.5, -88.5)" d="M 182.621 96.8125 C 182.496 96.8129 182.374 96.774 182.273 96.7011 L 177.5 93.2411 L 172.727 96.7011 C 172.625 96.7751 172.503 96.8147 172.377 96.8142 C 172.251 96.8138 172.128 96.7733 172.027 96.6986 C 171.925 96.6239 171.85 96.5189 171.812 96.3987 C 171.775 96.2786 171.776 96.1495 171.816 96.0302 L 173.678 90.5169 L 168.854 87.2086 C 168.749 87.137 168.67 87.0338 168.628 86.9143 C 168.587 86.7947 168.584 86.6649 168.622 86.5438 C 168.659 86.4228 168.734 86.3168 168.836 86.2415 C 168.938 86.1661 169.061 86.1253 169.188 86.125 L 175.139 86.125 L 176.935 80.5975 C 176.974 80.4782 177.049 80.3742 177.151 80.3004 C 177.252 80.2266 177.375 80.1869 177.5 80.1869 C 177.625 80.1869 177.748 80.2266 177.849 80.3004 C 177.951 80.3742 178.026 80.4782 178.065 80.5975 L 179.861 86.1268 L 185.813 86.1268 C 185.939 86.1267 186.063 86.1673 186.165 86.2425 C 186.267 86.3177 186.342 86.4237 186.38 86.5448 C 186.417 86.6659 186.415 86.7959 186.374 86.9157 C 186.332 87.0354 186.253 87.1387 186.148 87.2104 L 181.322 90.5169 L 183.183 96.0287 C 183.213 96.1179 183.221 96.2131 183.207 96.3062 C 183.193 96.3994 183.158 96.4879 183.103 96.5645 C 183.048 96.6411 182.976 96.7035 182.892 96.7466 C 182.808 96.7897 182.715 96.8123 182.621 96.8125 Z" stroke-linecap="round" />
</g>
<g transform="matrix(1 0 0 1 570.51 563.5)"  >
<path style="stroke: none; stroke-width: 1; stroke-dasharray: none; stroke-linecap: butt; stroke-dashoffset: 0; stroke-linejoin: miter; stroke-miterlimit: 4; fill: rgb(242,159,5); fill-rule: nonzero; opacity: 1;" vector-effect="non-scaling-stroke"  transform=" translate(-199.5, -88.5)" d="M 204.621 96.8125 C 204.496 96.8129 204.374 96.774 204.273 96.7011 L 199.5 93.2411 L 194.727 96.7011 C 194.625 96.7751 194.503 96.8147 194.377 96.8142 C 194.251 96.8138 194.128 96.7733 194.027 96.6986 C 193.925 96.6239 193.85 96.5189 193.812 96.3987 C 193.775 96.2786 193.776 96.1495 193.816 96.0302 L 195.678 90.5169 L 190.854 87.2086 C 190.749 87.137 190.67 87.0338 190.628 86.9143 C 190.587 86.7947 190.584 86.6649 190.622 86.5438 C 190.659 86.4228 190.734 86.3168 190.836 86.2415 C 190.938 86.1661 191.061 86.1253 191.188 86.125 L 197.139 86.125 L 198.935 80.5975 C 198.974 80.4782 199.049 80.3742 199.151 80.3004 C 199.252 80.2266 199.375 80.1869 199.5 80.1869 C 199.625 80.1869 199.748 80.2266 199.849 80.3004 C 199.951 80.3742 200.026 80.4782 200.065 80.5975 L 201.861 86.1268 L 207.813 86.1268 C 207.939 86.1267 208.063 86.1673 208.165 86.2425 C 208.267 86.3177 208.342 86.4237 208.38 86.5448 C 208.417 86.6659 208.415 86.7959 208.374 86.9157 C 208.332 87.0354 208.253 87.1387 208.148 87.2104 L 203.322 90.5169 L 205.183 96.0287 C 205.213 96.1179 205.221 96.2131 205.207 96.3062 C 205.193 96.3994 205.158 96.4879 205.103 96.5645 C 205.048 96.6411 204.976 96.7035 204.892 96.7466 C 204.808 96.7897 204.715 96.8123 204.621 96.8125 Z" stroke-linecap="round" />
</g>
<g transform="matrix(1 0 0 1 592.5 563.5)"  >
<path style="stroke: rgb(242,159,5); stroke-width: 1.19; stroke-dasharray: none; stroke-linecap: butt; stroke-dashoffset: 0; stroke-linejoin: round; stroke-miterlimit: 4; fill: none; fill-rule: nonzero; opacity: 1;" vector-effect="non-scaling-stroke"  transform=" translate(-221.5, -88.5)" d="M 229.812 86.7188 L 223.43 86.7188 L 221.5 80.7812 L 219.57 86.7188 L 213.188 86.7188 L 218.383 90.2812 L 216.379 96.2188 L 221.5 92.5078 L 226.621 96.2188 L 224.617 90.2812 L 229.812 86.7188 Z" stroke-linecap="round" />
</g>
<g transform="matrix(1 0 0 1 588.35 563.5)"  >
<path style="stroke: none; stroke-width: 1; stroke-dasharray: none; stroke-linecap: butt; stroke-dashoffset: 0; stroke-linejoin: miter; stroke-miterlimit: 4; fill: rgb(242,159,5); fill-rule: nonzero; opacity: 1;" vector-effect="non-scaling-stroke"  transform=" translate(-217.34, -88.5)" d="M 221.5 80.7812 L 221.5 92.5078 L 216.379 96.2188 L 218.383 90.2812 L 213.188 86.7188 L 219.57 86.7188 L 221.5 80.7812 Z" stroke-linecap="round" />
</g>
<g transform="matrix(2.95 0 0 1.29 587.92 540)"  >
<rect style="stroke: rgb(0,0,0); stroke-width: 0; stroke-dasharray: none; stroke-linecap: butt; stroke-dashoffset: 0; stroke-linejoin: miter; stroke-miterlimit: 4; fill: rgb(255,255,255); fill-rule: nonzero; opacity: 1;" vector-effect="non-scaling-stroke"  x="-33.085" y="-33.085" rx="0" ry="0" width="66.17" height="66.17" />
</g>
<g transform="matrix(1.41 0 0 1.41 434.98 538.85)"  >
<path style="stroke: rgb(93,93,93); stroke-width: 0; stroke-dasharray: none; stroke-linecap: butt; stroke-dashoffset: 0; stroke-linejoin: miter; stroke-miterlimit: 4; fill: rgb(220,0,0); fill-rule: nonzero; opacity: 1;" vector-effect="non-scaling-stroke"  transform=" translate(-31.97, -32.12)" d="M 56.411 0.719 C 56.411 0.719 7.623 0.704 7.637 0.719 C 3.14 0.719 0.612 3.044 0.612 7.793 L 0.612 56.759 C 0.612 61.202 2.8850000000000002 63.528 7.378 63.528 L 56.551 63.528 C 61.044000000000004 63.528 63.32 61.318 63.32 56.759 L 63.32 7.793 C 63.321 3.159 61.045 0.7190000000000003 56.411 0.7190000000000003 z M 30.749 23.374 C 30.749 24.91 29.349999999999998 26.555 27.534 26.555 L 27.534 52.49 C 27.534 56.172000000000004 22.516 56.172000000000004 22.516 52.49 L 22.516 26.555 C 20.749 26.555 19.209999999999997 25.194 19.209999999999997 23.155 L 19.209999999999997 8.882 C 19.209999999999997 7.64 21.004999999999995 7.592 21.004999999999995 8.931 L 21.004999999999995 19.481 L 22.507999999999996 19.481 L 22.507999999999996 8.833 C 22.507999999999996 7.692 24.236999999999995 7.619 24.236999999999995 8.882 L 24.236999999999995 19.481 L 25.789999999999996 19.481 L 25.789999999999996 8.848 C 25.789999999999996 7.655000000000001 27.467999999999996 7.607000000000001 27.467999999999996 8.895000000000001 L 27.467999999999996 19.481 L 28.995999999999995 19.481 L 28.995999999999995 8.848 C 28.995999999999995 7.668000000000001 30.748999999999995 7.621 30.748999999999995 8.895000000000001 L 30.748999999999995 23.374000000000002 z M 44.135 52.477999999999994 C 44.135 56.07899999999999 39.107 56.02499999999999 39.107 52.477999999999994 L 39.107 36.496 L 36.43 36.496 L 36.43 12.199 C 36.43 6.543 44.136 6.543 44.136 12.199 L 44.136 52.478 z" stroke-linecap="round" />
</g>
<g transform="matrix(1 0 0 1 556.33 568.44)"  >
<path style="stroke: rgb(0,0,0); stroke-width: 0; stroke-dasharray: none; stroke-linecap: butt; stroke-dashoffset: 0; stroke-linejoin: miter; stroke-miterlimit: 4; fill: rgb(211,179,70); fill-rule: nonzero; opacity: 1;" vector-effect="non-scaling-stroke"  transform=" translate(-12, -11.64)" d="M 11.245 4.174 C 11.4765 3.50808 11.5922 3.17513 11.7634 3.08285 C 11.9115 3.00298 12.0898 3.00298 12.238 3.08285 C 12.4091 3.17513 12.5248 3.50808 12.7563 4.174 L 14.2866 8.57639 C 14.3525 8.76592 14.3854 8.86068 14.4448 8.93125 C 14.4972 8.99359 14.5641 9.04218 14.6396 9.07278 C 14.725 9.10743 14.8253 9.10947 15.0259 9.11356 L 19.6857 9.20852 C 20.3906 9.22288 20.743 9.23007 20.8837 9.36432 C 21.0054 9.48051 21.0605 9.65014 21.0303 9.81569 C 20.9955 10.007 20.7146 10.2199 20.1528 10.6459 L 16.4387 13.4616 C 16.2788 13.5829 16.1989 13.6435 16.1501 13.7217 C 16.107 13.7909 16.0815 13.8695 16.0757 13.9507 C 16.0692 14.0427 16.0982 14.1387 16.1563 14.3308 L 17.506 18.7919 C 17.7101 19.4667 17.8122 19.8041 17.728 19.9793 C 17.6551 20.131 17.5108 20.2358 17.344 20.2583 C 17.1513 20.2842 16.862 20.0829 16.2833 19.6802 L 12.4576 17.0181 C 12.2929 16.9035 12.2106 16.8462 12.1211 16.8239 C 12.042 16.8043 11.9593 16.8043 11.8803 16.8239 C 11.7908 16.8462 11.7084 16.9035 11.5437 17.0181 L 7.71805 19.6802 C 7.13937 20.0829 6.85003 20.2842 6.65733 20.2583 C 6.49056 20.2358 6.34626 20.131 6.27337 19.9793 C 6.18915 19.8041 6.29123 19.4667 6.49538 18.7919 L 7.84503 14.3308 C 7.90313 14.1387 7.93218 14.0427 7.92564 13.9507 C 7.91986 13.8695 7.89432 13.7909 7.85123 13.7217 C 7.80246 13.6435 7.72251 13.5829 7.56262 13.4616 L 3.84858 10.6459 C 3.28678 10.2199 3.00588 10.007 2.97101 9.81569 C 2.94082 9.65014 2.99594 9.48051 3.11767 9.36432 C 3.25831 9.23007 3.61074 9.22289 4.31559 9.20852 L 8.9754 9.11356 C 9.176 9.10947 9.27631 9.10743 9.36177 9.07278 C 9.43726 9.04218 9.50414 8.99359 9.55657 8.93125 C 9.61593 8.86068 9.64887 8.76592 9.71475 8.57639 L 11.245 4.174 Z" stroke-linecap="round" />
</g>
<g transform="matrix(1 0 0 1 613.58 568.63)"  >
<path style="stroke: rgb(0,0,0); stroke-width: 0; stroke-dasharray: none; stroke-linecap: butt; stroke-dashoffset: 0; stroke-linejoin: miter; stroke-miterlimit: 4; fill: rgb(211,179,70); fill-rule: nonzero; opacity: 1;" vector-effect="non-scaling-stroke"  transform=" translate(-12, -11.64)" d="M 11.245 4.174 C 11.4765 3.50808 11.5922 3.17513 11.7634 3.08285 C 11.9115 3.00298 12.0898 3.00298 12.238 3.08285 C 12.4091 3.17513 12.5248 3.50808 12.7563 4.174 L 14.2866 8.57639 C 14.3525 8.76592 14.3854 8.86068 14.4448 8.93125 C 14.4972 8.99359 14.5641 9.04218 14.6396 9.07278 C 14.725 9.10743 14.8253 9.10947 15.0259 9.11356 L 19.6857 9.20852 C 20.3906 9.22288 20.743 9.23007 20.8837 9.36432 C 21.0054 9.48051 21.0605 9.65014 21.0303 9.81569 C 20.9955 10.007 20.7146 10.2199 20.1528 10.6459 L 16.4387 13.4616 C 16.2788 13.5829 16.1989 13.6435 16.1501 13.7217 C 16.107 13.7909 16.0815 13.8695 16.0757 13.9507 C 16.0692 14.0427 16.0982 14.1387 16.1563 14.3308 L 17.506 18.7919 C 17.7101 19.4667 17.8122 19.8041 17.728 19.9793 C 17.6551 20.131 17.5108 20.2358 17.344 20.2583 C 17.1513 20.2842 16.862 20.0829 16.2833 19.6802 L 12.4576 17.0181 C 12.2929 16.9035 12.2106 16.8462 12.1211 16.8239 C 12.042 16.8043 11.9593 16.8043 11.8803 16.8239 C 11.7908 16.8462 11.7084 16.9035 11.5437 17.0181 L 7.71805 19.6802 C 7.13937 20.0829 6.85003 20.2842 6.65733 20.2583 C 6.49056 20.2358 6.34626 20.131 6.27337 19.9793 C 6.18915 19.8041 6.29123 19.4667 6.49538 18.7919 L 7.84503 14.3308 C 7.90313 14.1387 7.93218 14.0427 7.92564 13.9507 C 7.91986 13.8695 7.89432 13.7909 7.85123 13.7217 C 7.80246 13.6435 7.72251 13.5829 7.56262 13.4616 L 3.84858 10.6459 C 3.28678 10.2199 3.00588 10.007 2.97101 9.81569 C 2.94082 9.65014 2.99594 9.48051 3.11767 9.36432 C 3.25831 9.23007 3.61074 9.22289 4.31559 9.20852 L 8.9754 9.11356 C 9.176 9.10947 9.27631 9.10743 9.36177 9.07278 C 9.43726 9.04218 9.50414 8.99359 9.55657 8.93125 C 9.61593 8.86068 9.64887 8.76592 9.71475 8.57639 L 11.245 4.174 Z" stroke-linecap="round" />
</g>
<g transform="matrix(1 0 0 1 587.72 568.67)"  >
<path style="stroke: rgb(0,0,0); stroke-width: 0; stroke-dasharray: none; stroke-linecap: butt; stroke-dashoffset: 0; stroke-linejoin: miter; stroke-miterlimit: 4; fill: rgb(211,179,70); fill-rule: nonzero; opacity: 1;" vector-effect="non-scaling-stroke"  transform=" translate(-12, -11.64)" d="M 11.245 4.174 C 11.4765 3.50808 11.5922 3.17513 11.7634 3.08285 C 11.9115 3.00298 12.0898 3.00298 12.238 3.08285 C 12.4091 3.17513 12.5248 3.50808 12.7563 4.174 L 14.2866 8.57639 C 14.3525 8.76592 14.3854 8.86068 14.4448 8.93125 C 14.4972 8.99359 14.5641 9.04218 14.6396 9.07278 C 14.725 9.10743 14.8253 9.10947 15.0259 9.11356 L 19.6857 9.20852 C 20.3906 9.22288 20.743 9.23007 20.8837 9.36432 C 21.0054 9.48051 21.0605 9.65014 21.0303 9.81569 C 20.9955 10.007 20.7146 10.2199 20.1528 10.6459 L 16.4387 13.4616 C 16.2788 13.5829 16.1989 13.6435 16.1501 13.7217 C 16.107 13.7909 16.0815 13.8695 16.0757 13.9507 C 16.0692 14.0427 16.0982 14.1387 16.1563 14.3308 L 17.506 18.7919 C 17.7101 19.4667 17.8122 19.8041 17.728 19.9793 C 17.6551 20.131 17.5108 20.2358 17.344 20.2583 C 17.1513 20.2842 16.862 20.0829 16.2833 19.6802 L 12.4576 17.0181 C 12.2929 16.9035 12.2106 16.8462 12.1211 16.8239 C 12.042 16.8043 11.9593 16.8043 11.8803 16.8239 C 11.7908 16.8462 11.7084 16.9035 11.5437 17.0181 L 7.71805 19.6802 C 7.13937 20.0829 6.85003 20.2842 6.65733 20.2583 C 6.49056 20.2358 6.34626 20.131 6.27337 19.9793 C 6.18915 19.8041 6.29123 19.4667 6.49538 18.7919 L 7.84503 14.3308 C 7.90313 14.1387 7.93218 14.0427 7.92564 13.9507 C 7.91986 13.8695 7.89432 13.7909 7.85123 13.7217 C 7.80246 13.6435 7.72251 13.5829 7.56262 13.4616 L 3.84858 10.6459 C 3.28678 10.2199 3.00588 10.007 2.97101 9.81569 C 2.94082 9.65014 2.99594 9.48051 3.11767 9.36432 C 3.25831 9.23007 3.61074 9.22289 4.31559 9.20852 L 8.9754 9.11356 C 9.176 9.10947 9.27631 9.10743 9.36177 9.07278 C 9.43726 9.04218 9.50414 8.99359 9.55657 8.93125 C 9.61593 8.86068 9.64887 8.76592 9.71475 8.57639 L 11.245 4.174 Z" stroke-linecap="round" />
</g>
<g transform="matrix(1 0 0 1 641.08 568.81)"  >
<path style="stroke: rgb(0,0,0); stroke-width: 0; stroke-dasharray: none; stroke-linecap: butt; stroke-dashoffset: 0; stroke-linejoin: miter; stroke-miterlimit: 4; fill: rgb(211,179,70); fill-rule: nonzero; opacity: 1;" vector-effect="non-scaling-stroke"  transform=" translate(-12, -11.64)" d="M 11.245 4.174 C 11.4765 3.50808 11.5922 3.17513 11.7634 3.08285 C 11.9115 3.00298 12.0898 3.00298 12.238 3.08285 C 12.4091 3.17513 12.5248 3.50808 12.7563 4.174 L 14.2866 8.57639 C 14.3525 8.76592 14.3854 8.86068 14.4448 8.93125 C 14.4972 8.99359 14.5641 9.04218 14.6396 9.07278 C 14.725 9.10743 14.8253 9.10947 15.0259 9.11356 L 19.6857 9.20852 C 20.3906 9.22288 20.743 9.23007 20.8837 9.36432 C 21.0054 9.48051 21.0605 9.65014 21.0303 9.81569 C 20.9955 10.007 20.7146 10.2199 20.1528 10.6459 L 16.4387 13.4616 C 16.2788 13.5829 16.1989 13.6435 16.1501 13.7217 C 16.107 13.7909 16.0815 13.8695 16.0757 13.9507 C 16.0692 14.0427 16.0982 14.1387 16.1563 14.3308 L 17.506 18.7919 C 17.7101 19.4667 17.8122 19.8041 17.728 19.9793 C 17.6551 20.131 17.5108 20.2358 17.344 20.2583 C 17.1513 20.2842 16.862 20.0829 16.2833 19.6802 L 12.4576 17.0181 C 12.2929 16.9035 12.2106 16.8462 12.1211 16.8239 C 12.042 16.8043 11.9593 16.8043 11.8803 16.8239 C 11.7908 16.8462 11.7084 16.9035 11.5437 17.0181 L 7.71805 19.6802 C 7.13937 20.0829 6.85003 20.2842 6.65733 20.2583 C 6.49056 20.2358 6.34626 20.131 6.27337 19.9793 C 6.18915 19.8041 6.29123 19.4667 6.49538 18.7919 L 7.84503 14.3308 C 7.90313 14.1387 7.93218 14.0427 7.92564 13.9507 C 7.91986 13.8695 7.89432 13.7909 7.85123 13.7217 C 7.80246 13.6435 7.72251 13.5829 7.56262 13.4616 L 3.84858 10.6459 C 3.28678 10.2199 3.00588 10.007 2.97101 9.81569 C 2.94082 9.65014 2.99594 9.48051 3.11767 9.36432 C 3.25831 9.23007 3.61074 9.22289 4.31559 9.20852 L 8.9754 9.11356 C 9.176 9.10947 9.27631 9.10743 9.36177 9.07278 C 9.43726 9.04218 9.50414 8.99359 9.55657 8.93125 C 9.61593 8.86068 9.64887 8.76592 9.71475 8.57639 L 11.245 4.174 Z" stroke-linecap="round" />
</g>
<g transform="matrix(0.23 0 0 0.23 594.67 507.88)" style=""  >
		<text xml:space="preserve" font-family="Alegreya" font-size="80" font-style="normal" font-weight="700" style="stroke: none; stroke-width: 1; stroke-dasharray: none; stroke-linecap: butt; stroke-dashoffset: 0; stroke-linejoin: miter; stroke-miterlimit: 4; fill: rgb(0,0,0); fill-rule: nonzero; opacity: 1; white-space: pre;" ><tspan x="-394.38" y="25.13" >Restaurant of the week</tspan></text>
</g>
<g transform="matrix(0.41 0 0 0.41 586.91 540)" style="" id="9f37d7a0-3e12-45b0-aaad-f50e3cfc2b02"  >
		<text xml:space="preserve" font-family="Lato" font-size="40" font-style="normal" font-weight="400" style="stroke: none; stroke-width: 1; stroke-dasharray: none; stroke-linecap: butt; stroke-dashoffset: 0; stroke-linejoin: miter; stroke-miterlimit: 4; fill: rgb(0,0,0); fill-rule: nonzero; opacity: 1; white-space: pre;" ><tspan x="-194.29" y="12.57" >Thalapakatti Restaurant</tspan></text>
</g>
</svg>