<?xml version="1.0" encoding="UTF-8" standalone="no" ?>
<!DOCTYPE svg PUBLIC "-//W3C//DTD SVG 1.1//EN" "http://www.w3.org/Graphics/SVG/1.1/DTD/svg11.dtd">
<svg xmlns="http://www.w3.org/2000/svg" xmlns:xlink="http://www.w3.org/1999/xlink" version="1.1" width="1080" height="1080" viewBox="0 0 1080 1080" xml:space="preserve">
<desc>Created with Fabric.js 5.2.4</desc>
<defs>
</defs>
<g transform="matrix(1 0 0 1 540 540)" id="140c4af5-bbc7-45eb-96c4-f95a4d7175ce"  >
<rect style="stroke: none; stroke-width: 1; stroke-dasharray: none; stroke-linecap: butt; stroke-dashoffset: 0; stroke-linejoin: miter; stroke-miterlimit: 4; fill: rgb(255,255,255); fill-rule: nonzero; opacity: 1; visibility: hidden;" vector-effect="non-scaling-stroke"  x="-540" y="-540" rx="0" ry="0" width="1080" height="1080" />
</g>
<g transform="matrix(1 0 0 1 540 540)" id="783b8c00-bf0f-4a5c-bcfe-d0a3b5e20dea"  >
</g>
<g transform="matrix(1 0 0 1 540 540)"  >
<rect style="stroke: none; stroke-width: 1; stroke-dasharray: none; stroke-linecap: butt; stroke-dashoffset: 0; stroke-linejoin: miter; stroke-miterlimit: 4; fill: rgb(255,255,255); fill-rule: nonzero; opacity: 1; visibility: hidden;" vector-effect="non-scaling-stroke"  x="-540" y="-540" rx="0" ry="0" width="1080" height="1080" />
</g>
<g transform="matrix(1 0 0 1 571.52 569.86)"  >
<rect style="stroke: none; stroke-width: 1; stroke-dasharray: none; stroke-linecap: butt; stroke-dashoffset: 0; stroke-linejoin: miter; stroke-miterlimit: 4; fill: rgb(255,255,255); fill-rule: nonzero; opacity: 1;" vector-effect="non-scaling-stroke"  x="-118.5" y="-40" rx="20" ry="20" width="237" height="80" />
</g>
<g transform="matrix(1 0 0 1 587.57 562.24)"  >
<path style="stroke: none; stroke-width: 1; stroke-dasharray: none; stroke-linecap: butt; stroke-dashoffset: 0; stroke-linejoin: miter; stroke-miterlimit: 4; fill: rgb(54,54,54); fill-rule: nonzero; opacity: 1;" vector-effect="non-scaling-stroke"  transform=" translate(-134.55, -32.38)" d="M 73.648 28.2 L 73.648 25.878 L 77.986 25.878 L 77.986 39 L 75.394 39 L 75.394 28.2 L 73.648 28.2 Z M 81.2675 36.156 C 82.4195 35.196 83.3375 34.398 84.0215 33.762 C 84.7055 33.114 85.2755 32.442 85.7315 31.746 C 86.1875 31.05 86.4155 30.366 86.4155 29.694 C 86.4155 29.082 86.2715 28.602 85.9835 28.254 C 85.6955 27.906 85.2515 27.732 84.6515 27.732 C 84.0515 27.732 83.5895 27.936 83.2655 28.344 C 82.9415 28.74 82.7735 29.286 82.7615 29.982 L 80.3135 29.982 C 80.3615 28.542 80.7875 27.45 81.5915 26.706 C 82.4075 25.962 83.4395 25.59 84.6875 25.59 C 86.0555 25.59 87.1055 25.956 87.8375 26.688 C 88.5695 27.408 88.9355 28.362 88.9355 29.55 C 88.9355 30.486 88.6835 31.38 88.1795 32.232 C 87.6755 33.084 87.0995 33.828 86.4515 34.464 C 85.8035 35.088 84.9575 35.844 83.9135 36.732 L 89.2235 36.732 L 89.2235 38.82 L 80.3315 38.82 L 80.3315 36.948 L 81.2675 36.156 Z M 101.868 39 L 99.0965 34.104 L 97.9085 34.104 L 97.9085 39 L 95.3885 39 L 95.3885 26.436 L 100.104 26.436 C 101.076 26.436 101.904 26.61 102.588 26.958 C 103.272 27.294 103.782 27.756 104.118 28.344 C 104.466 28.92 104.64 29.568 104.64 30.288 C 104.64 31.116 104.4 31.866 103.92 32.538 C 103.44 33.198 102.726 33.654 101.778 33.906 L 104.784 39 L 101.868 39 Z M 97.9085 32.214 L 100.014 32.214 C 100.698 32.214 101.208 32.052 101.544 31.728 C 101.88 31.392 102.048 30.93 102.048 30.342 C 102.048 29.766 101.88 29.322 101.544 29.01 C 101.208 28.686 100.698 28.524 100.014 28.524 L 97.9085 28.524 L 97.9085 32.214 Z M 116.19 33.798 C 116.19 34.158 116.166 34.482 116.118 34.77 L 108.828 34.77 C 108.888 35.49 109.14 36.054 109.584 36.462 C 110.028 36.87 110.574 37.074 111.222 37.074 C 112.158 37.074 112.824 36.672 113.22 35.868 L 115.938 35.868 C 115.65 36.828 115.098 37.62 114.282 38.244 C 113.466 38.856 112.464 39.162 111.276 39.162 C 110.316 39.162 109.452 38.952 108.684 38.532 C 107.928 38.1 107.334 37.494 106.902 36.714 C 106.482 35.934 106.272 35.034 106.272 34.014 C 106.272 32.982 106.482 32.076 106.902 31.296 C 107.322 30.516 107.91 29.916 108.666 29.496 C 109.422 29.076 110.292 28.866 111.276 28.866 C 112.224 28.866 113.07 29.07 113.814 29.478 C 114.57 29.886 115.152 30.468 115.56 31.224 C 115.98 31.968 116.19 32.826 116.19 33.798 Z M 113.58 33.078 C 113.568 32.43 113.334 31.914 112.878 31.53 C 112.422 31.134 111.864 30.936 111.204 30.936 C 110.58 30.936 110.052 31.128 109.62 31.512 C 109.2 31.884 108.942 32.406 108.846 33.078 L 113.58 33.078 Z M 121.845 39.162 C 121.029 39.162 120.297 39.018 119.649 38.73 C 119.001 38.43 118.485 38.028 118.101 37.524 C 117.729 37.02 117.525 36.462 117.489 35.85 L 120.027 35.85 C 120.075 36.234 120.261 36.552 120.585 36.804 C 120.921 37.056 121.335 37.182 121.827 37.182 C 122.307 37.182 122.679 37.086 122.943 36.894 C 123.219 36.702 123.357 36.456 123.357 36.156 C 123.357 35.832 123.189 35.592 122.853 35.436 C 122.529 35.268 122.007 35.088 121.287 34.896 C 120.543 34.716 119.931 34.53 119.451 34.338 C 118.983 34.146 118.575 33.852 118.227 33.456 C 117.891 33.06 117.723 32.526 117.723 31.854 C 117.723 31.302 117.879 30.798 118.191 30.342 C 118.515 29.886 118.971 29.526 119.559 29.262 C 120.159 28.998 120.861 28.866 121.665 28.866 C 122.853 28.866 123.801 29.166 124.509 29.766 C 125.217 30.354 125.607 31.152 125.679 32.16 L 123.267 32.16 C 123.231 31.764 123.063 31.452 122.763 31.224 C 122.475 30.984 122.085 30.864 121.593 30.864 C 121.137 30.864 120.783 30.948 120.531 31.116 C 120.291 31.284 120.171 31.518 120.171 31.818 C 120.171 32.154 120.339 32.412 120.675 32.592 C 121.011 32.76 121.533 32.934 122.241 33.114 C 122.961 33.294 123.555 33.48 124.023 33.672 C 124.491 33.864 124.893 34.164 125.229 34.572 C 125.577 34.968 125.757 35.496 125.769 36.156 C 125.769 36.732 125.607 37.248 125.283 37.704 C 124.971 38.16 124.515 38.52 123.915 38.784 C 123.327 39.036 122.637 39.162 121.845 39.162 Z M 130.772 31.098 L 130.772 35.922 C 130.772 36.258 130.85 36.504 131.006 36.66 C 131.174 36.804 131.45 36.876 131.834 36.876 L 133.004 36.876 L 133.004 39 L 131.42 39 C 129.296 39 128.234 37.968 128.234 35.904 L 128.234 31.098 L 127.046 31.098 L 127.046 29.028 L 128.234 29.028 L 128.234 26.562 L 130.772 26.562 L 130.772 29.028 L 133.004 29.028 L 133.004 31.098 L 130.772 31.098 Z M 134.168 33.978 C 134.168 32.97 134.366 32.076 134.762 31.296 C 135.17 30.516 135.716 29.916 136.4 29.496 C 137.096 29.076 137.87 28.866 138.722 28.866 C 139.466 28.866 140.114 29.016 140.666 29.316 C 141.23 29.616 141.68 29.994 142.016 30.45 L 142.016 29.028 L 144.554 29.028 L 144.554 39 L 142.016 39 L 142.016 37.542 C 141.692 38.01 141.242 38.4 140.666 38.712 C 140.102 39.012 139.448 39.162 138.704 39.162 C 137.864 39.162 137.096 38.946 136.4 38.514 C 135.716 38.082 135.17 37.476 134.762 36.696 C 134.366 35.904 134.168 34.998 134.168 33.978 Z M 142.016 34.014 C 142.016 33.402 141.896 32.88 141.656 32.448 C 141.416 32.004 141.092 31.668 140.684 31.44 C 140.276 31.2 139.838 31.08 139.37 31.08 C 138.902 31.08 138.47 31.194 138.074 31.422 C 137.678 31.65 137.354 31.986 137.102 32.43 C 136.862 32.862 136.742 33.378 136.742 33.978 C 136.742 34.578 136.862 35.106 137.102 35.562 C 137.354 36.006 137.678 36.348 138.074 36.588 C 138.482 36.828 138.914 36.948 139.37 36.948 C 139.838 36.948 140.276 36.834 140.684 36.606 C 141.092 36.366 141.416 36.03 141.656 35.598 C 141.896 35.154 142.016 34.626 142.016 34.014 Z M 156.429 29.028 L 156.429 39 L 153.891 39 L 153.891 37.74 C 153.567 38.172 153.141 38.514 152.613 38.766 C 152.097 39.006 151.533 39.126 150.921 39.126 C 150.141 39.126 149.451 38.964 148.851 38.64 C 148.251 38.304 147.777 37.818 147.429 37.182 C 147.093 36.534 146.925 35.766 146.925 34.878 L 146.925 29.028 L 149.445 29.028 L 149.445 34.518 C 149.445 35.31 149.643 35.922 150.039 36.354 C 150.435 36.774 150.975 36.984 151.659 36.984 C 152.355 36.984 152.901 36.774 153.297 36.354 C 153.693 35.922 153.891 35.31 153.891 34.518 L 153.891 29.028 L 156.429 29.028 Z M 161.436 30.576 C 161.76 30.048 162.18 29.634 162.696 29.334 C 163.224 29.034 163.824 28.884 164.496 28.884 L 164.496 31.53 L 163.83 31.53 C 163.038 31.53 162.438 31.716 162.03 32.088 C 161.634 32.46 161.436 33.108 161.436 34.032 L 161.436 39 L 158.916 39 L 158.916 29.028 L 161.436 29.028 L 161.436 30.576 Z M 165.545 33.978 C 165.545 32.97 165.743 32.076 166.139 31.296 C 166.547 30.516 167.093 29.916 167.777 29.496 C 168.473 29.076 169.247 28.866 170.099 28.866 C 170.843 28.866 171.491 29.016 172.043 29.316 C 172.607 29.616 173.057 29.994 173.393 30.45 L 173.393 29.028 L 175.931 29.028 L 175.931 39 L 173.393 39 L 173.393 37.542 C 173.069 38.01 172.619 38.4 172.043 38.712 C 171.479 39.012 170.825 39.162 170.081 39.162 C 169.241 39.162 168.473 38.946 167.777 38.514 C 167.093 38.082 166.547 37.476 166.139 36.696 C 165.743 35.904 165.545 34.998 165.545 33.978 Z M 173.393 34.014 C 173.393 33.402 173.273 32.88 173.033 32.448 C 172.793 32.004 172.469 31.668 172.061 31.44 C 171.653 31.2 171.215 31.08 170.747 31.08 C 170.279 31.08 169.847 31.194 169.451 31.422 C 169.055 31.65 168.731 31.986 168.479 32.43 C 168.239 32.862 168.119 33.378 168.119 33.978 C 168.119 34.578 168.239 35.106 168.479 35.562 C 168.731 36.006 169.055 36.348 169.451 36.588 C 169.859 36.828 170.291 36.948 170.747 36.948 C 171.215 36.948 171.653 36.834 172.061 36.606 C 172.469 36.366 172.793 36.03 173.033 35.598 C 173.273 35.154 173.393 34.626 173.393 34.014 Z M 183.918 28.884 C 185.106 28.884 186.066 29.262 186.798 30.018 C 187.53 30.762 187.896 31.806 187.896 33.15 L 187.896 39 L 185.376 39 L 185.376 33.492 C 185.376 32.7 185.178 32.094 184.782 31.674 C 184.386 31.242 183.846 31.026 183.162 31.026 C 182.466 31.026 181.914 31.242 181.506 31.674 C 181.11 32.094 180.912 32.7 180.912 33.492 L 180.912 39 L 178.392 39 L 178.392 29.028 L 180.912 29.028 L 180.912 30.27 C 181.248 29.838 181.674 29.502 182.19 29.262 C 182.718 29.01 183.294 28.884 183.918 28.884 Z M 193.227 31.098 L 193.227 35.922 C 193.227 36.258 193.305 36.504 193.461 36.66 C 193.629 36.804 193.905 36.876 194.289 36.876 L 195.459 36.876 L 195.459 39 L 193.875 39 C 191.751 39 190.689 37.968 190.689 35.904 L 190.689 31.098 L 189.501 31.098 L 189.501 29.028 L 190.689 29.028 L 190.689 26.562 L 193.227 26.562 L 193.227 29.028 L 195.459 29.028 L 195.459 31.098 L 193.227 31.098 Z" stroke-linecap="round" />
</g>
<g transform="matrix(1 0 0 1 559.01 581.84)"  >
<path style="stroke: none; stroke-width: 1; stroke-dasharray: none; stroke-linecap: butt; stroke-dashoffset: 0; stroke-linejoin: miter; stroke-miterlimit: 4; fill: rgb(120,120,120); fill-rule: nonzero; opacity: 1;" vector-effect="non-scaling-stroke"  transform=" translate(-105.99, -51.98)" d="M 75.016 46.636 L 75.016 55 L 73.924 55 L 73.924 46.636 L 75.016 46.636 Z M 80.0811 48.304 C 80.8811 48.304 81.5291 48.548 82.0251 49.036 C 82.5211 49.516 82.7691 50.212 82.7691 51.124 L 82.7691 55 L 81.6891 55 L 81.6891 51.28 C 81.6891 50.624 81.5251 50.124 81.1971 49.78 C 80.8691 49.428 80.4211 49.252 79.8531 49.252 C 79.2771 49.252 78.8171 49.432 78.4731 49.792 C 78.1371 50.152 77.9691 50.676 77.9691 51.364 L 77.9691 55 L 76.8771 55 L 76.8771 48.424 L 77.9691 48.424 L 77.9691 49.36 C 78.1851 49.024 78.4771 48.764 78.8451 48.58 C 79.2211 48.396 79.6331 48.304 80.0811 48.304 Z M 93.6081 46.636 L 90.8841 51.844 L 90.8841 55 L 89.7921 55 L 89.7921 51.844 L 87.0561 46.636 L 88.2681 46.636 L 90.3321 50.872 L 92.3961 46.636 L 93.6081 46.636 Z M 97.6279 55.108 C 97.0119 55.108 96.4519 54.968 95.9479 54.688 C 95.4519 54.408 95.0599 54.012 94.7719 53.5 C 94.4919 52.98 94.3519 52.38 94.3519 51.7 C 94.3519 51.028 94.4959 50.436 94.7839 49.924 C 95.0799 49.404 95.4799 49.008 95.9839 48.736 C 96.4879 48.456 97.0519 48.316 97.6759 48.316 C 98.2999 48.316 98.8639 48.456 99.3679 48.736 C 99.8719 49.008 100.268 49.4 100.556 49.912 C 100.852 50.424 101 51.02 101 51.7 C 101 52.38 100.848 52.98 100.544 53.5 C 100.248 54.012 99.8439 54.408 99.3319 54.688 C 98.8199 54.968 98.2519 55.108 97.6279 55.108 Z M 97.6279 54.148 C 98.0199 54.148 98.3879 54.056 98.7319 53.872 C 99.0759 53.688 99.3519 53.412 99.5599 53.044 C 99.7759 52.676 99.8839 52.228 99.8839 51.7 C 99.8839 51.172 99.7799 50.724 99.5719 50.356 C 99.3639 49.988 99.0919 49.716 98.7559 49.54 C 98.4199 49.356 98.0559 49.264 97.6639 49.264 C 97.2639 49.264 96.8959 49.356 96.5599 49.54 C 96.2319 49.716 95.9679 49.988 95.7679 50.356 C 95.5679 50.724 95.4679 51.172 95.4679 51.7 C 95.4679 52.236 95.5639 52.688 95.7559 53.056 C 95.9559 53.424 96.2199 53.7 96.5479 53.884 C 96.8759 54.06 97.2359 54.148 97.6279 54.148 Z M 108.268 48.424 L 108.268 55 L 107.176 55 L 107.176 54.028 C 106.968 54.364 106.676 54.628 106.3 54.82 C 105.932 55.004 105.524 55.096 105.076 55.096 C 104.564 55.096 104.104 54.992 103.696 54.784 C 103.288 54.568 102.964 54.248 102.724 53.824 C 102.492 53.4 102.376 52.884 102.376 52.276 L 102.376 48.424 L 103.456 48.424 L 103.456 52.132 C 103.456 52.78 103.62 53.28 103.948 53.632 C 104.276 53.976 104.724 54.148 105.292 54.148 C 105.876 54.148 106.336 53.968 106.672 53.608 C 107.008 53.248 107.176 52.724 107.176 52.036 L 107.176 48.424 L 108.268 48.424 Z M 111.204 49.492 C 111.396 49.116 111.668 48.824 112.02 48.616 C 112.38 48.408 112.816 48.304 113.328 48.304 L 113.328 49.432 L 113.04 49.432 C 111.816 49.432 111.204 50.096 111.204 51.424 L 111.204 55 L 110.112 55 L 110.112 48.424 L 111.204 48.424 L 111.204 49.492 Z M 117.379 51.7 C 117.379 51.02 117.515 50.428 117.787 49.924 C 118.059 49.412 118.435 49.016 118.915 48.736 C 119.403 48.456 119.959 48.316 120.583 48.316 C 121.391 48.316 122.055 48.512 122.575 48.904 C 123.103 49.296 123.451 49.84 123.619 50.536 L 122.443 50.536 C 122.331 50.136 122.111 49.82 121.783 49.588 C 121.463 49.356 121.063 49.24 120.583 49.24 C 119.959 49.24 119.455 49.456 119.071 49.888 C 118.687 50.312 118.495 50.916 118.495 51.7 C 118.495 52.492 118.687 53.104 119.071 53.536 C 119.455 53.968 119.959 54.184 120.583 54.184 C 121.063 54.184 121.463 54.072 121.783 53.848 C 122.103 53.624 122.323 53.304 122.443 52.888 L 123.619 52.888 C 123.443 53.56 123.091 54.1 122.563 54.508 C 122.035 54.908 121.375 55.108 120.583 55.108 C 119.959 55.108 119.403 54.968 118.915 54.688 C 118.435 54.408 118.059 54.012 117.787 53.5 C 117.515 52.988 117.379 52.388 117.379 51.7 Z M 125.64 47.356 C 125.432 47.356 125.256 47.284 125.112 47.14 C 124.968 46.996 124.896 46.82 124.896 46.612 C 124.896 46.404 124.968 46.228 125.112 46.084 C 125.256 45.94 125.432 45.868 125.64 45.868 C 125.84 45.868 126.008 45.94 126.144 46.084 C 126.288 46.228 126.36 46.404 126.36 46.612 C 126.36 46.82 126.288 46.996 126.144 47.14 C 126.008 47.284 125.84 47.356 125.64 47.356 Z M 126.168 48.424 L 126.168 55 L 125.076 55 L 125.076 48.424 L 126.168 48.424 Z M 129.361 49.324 L 129.361 53.2 C 129.361 53.52 129.429 53.748 129.565 53.884 C 129.701 54.012 129.937 54.076 130.273 54.076 L 131.077 54.076 L 131.077 55 L 130.093 55 C 129.485 55 129.029 54.86 128.725 54.58 C 128.421 54.3 128.269 53.84 128.269 53.2 L 128.269 49.324 L 127.417 49.324 L 127.417 48.424 L 128.269 48.424 L 128.269 46.768 L 129.361 46.768 L 129.361 48.424 L 131.077 48.424 L 131.077 49.324 L 129.361 49.324 Z M 138.065 48.424 L 134.105 58.096 L 132.977 58.096 L 134.273 54.928 L 131.621 48.424 L 132.833 48.424 L 134.897 53.752 L 136.937 48.424 L 138.065 48.424 Z" stroke-linecap="round" />
</g>
<g transform="matrix(1 0 0 1 493.02 569.86)"  >
<rect style="stroke: none; stroke-width: 1; stroke-dasharray: none; stroke-linecap: butt; stroke-dashoffset: 0; stroke-linejoin: miter; stroke-miterlimit: 4; fill: rgb(242,159,5); fill-rule: nonzero; opacity: 1;" vector-effect="non-scaling-stroke"  x="-20" y="-20" rx="20" ry="20" width="40" height="40" />
</g>
<g transform="matrix(1 0 0 1 493.02 569.86)"  >
<path style="stroke: none; stroke-width: 1; stroke-dasharray: none; stroke-linecap: butt; stroke-dashoffset: 0; stroke-linejoin: miter; stroke-miterlimit: 4; fill: rgb(255,255,255); fill-rule: nonzero; opacity: 1;" vector-effect="non-scaling-stroke"  transform=" translate(-40, -40)" d="M 40 30.375 C 36.2046 30.375 33.125 33.1469 33.125 36.5625 C 33.125 42.0625 40 49.625 40 49.625 C 40 49.625 46.875 42.0625 46.875 36.5625 C 46.875 33.1469 43.7954 30.375 40 30.375 Z M 40 40 C 39.4561 40 38.9244 39.8387 38.4722 39.5365 C 38.0199 39.2344 37.6675 38.8049 37.4593 38.3024 C 37.2512 37.7999 37.1967 37.2469 37.3028 36.7135 C 37.4089 36.1801 37.6709 35.6901 38.0555 35.3055 C 38.4401 34.9209 38.9301 34.6589 39.4635 34.5528 C 39.9969 34.4467 40.5499 34.5012 41.0524 34.7093 C 41.5549 34.9175 41.9844 35.2699 42.2865 35.7222 C 42.5887 36.1744 42.75 36.7061 42.75 37.25 C 42.7492 37.9791 42.4592 38.6781 41.9437 39.1937 C 41.4281 39.7092 40.7291 39.9992 40 40 Z" stroke-linecap="round" />
</g>
<g transform="matrix(2.17 0 0 0.65 591.87 568.05)"  >
<rect style="stroke: rgb(0,0,0); stroke-width: 0; stroke-dasharray: none; stroke-linecap: butt; stroke-dashoffset: 0; stroke-linejoin: miter; stroke-miterlimit: 4; fill: rgb(255,255,255); fill-rule: nonzero; opacity: 1;" vector-effect="non-scaling-stroke"  x="-33.0835" y="-33.0835" rx="0" ry="0" width="66.167" height="66.167" />
</g>
<g transform="matrix(0.19 0 0 0.19 589.05 560.03)" style=""  >
		<text xml:space="preserve" font-family="Raleway" font-size="78" font-style="normal" font-weight="900" style="stroke: none; stroke-width: 1; stroke-dasharray: none; stroke-linecap: butt; stroke-dashoffset: 0; stroke-linejoin: miter; stroke-miterlimit: 4; fill: rgb(0,0,0); fill-rule: nonzero; opacity: 1; white-space: pre;" ><tspan x="-316.3" y="24.5" >10 Best Restaurant</tspan></text>
</g>
<g transform="matrix(0.42 0 0 0.42 594.5 578.26)" style=""  >
		<text xml:space="preserve" font-family="Lato" font-size="40" font-style="normal" font-weight="400" style="stroke: none; stroke-width: 1; stroke-dasharray: none; stroke-linecap: butt; stroke-dashoffset: 0; stroke-linejoin: miter; stroke-miterlimit: 4; fill: rgb(0,0,0); fill-rule: nonzero; opacity: 1; white-space: pre;" ><tspan x="-69.41" y="12.57" >near you</tspan></text>
</g>
<g transform="matrix(0.65 0 0 0.65 491.45 570.14)"  >
<circle style="stroke: rgb(0,0,0); stroke-width: 0; stroke-dasharray: none; stroke-linecap: butt; stroke-dashoffset: 0; stroke-linejoin: miter; stroke-miterlimit: 4; fill: rgb(226,12,12); fill-rule: nonzero; opacity: 1;" vector-effect="non-scaling-stroke"  cx="0" cy="0" r="35" />
</g>
<g transform="matrix(1.67 0 0 1.67 491.67 571.11)"  >
<path style="stroke: rgb(0,0,0); stroke-width: 2; stroke-dasharray: none; stroke-linecap: round; stroke-dashoffset: 0; stroke-linejoin: round; stroke-miterlimit: 4; fill: rgb(255,255,255); fill-rule: nonzero; opacity: 1;" vector-effect="non-scaling-stroke"  transform=" translate(-12, -12)" d="M 12 21 C 15.5 17.4 19 14.1764 19 10.2 C 19 6.22355 15.866 3 12 3 C 8.13401 3 5 6.22355 5 10.2 C 5 14.1764 8.5 17.4 12 21 Z" stroke-linecap="round" />
</g>
<g transform="matrix(1.67 0 0 1.67 491.67 567.78)"  >
<path style="stroke: rgb(0,0,0); stroke-width: 2; stroke-dasharray: none; stroke-linecap: round; stroke-dashoffset: 0; stroke-linejoin: round; stroke-miterlimit: 4; fill: rgb(255,255,255); fill-rule: nonzero; opacity: 1;" vector-effect="non-scaling-stroke"  transform=" translate(-12, -10)" d="M 12 12 C 13.1046 12 14 11.1046 14 10 C 14 8.89543 13.1046 8 12 8 C 10.8954 8 10 8.89543 10 10 C 10 11.1046 10.8954 12 12 12 Z" stroke-linecap="round" />
</g>
</svg>